<mxfile host="app.diagrams.net" agent="Mozilla/5.0 (Windows NT 10.0; Win64; x64; rv:129.0) Gecko/20100101 Firefox/129.0" version="24.7.7">
  <diagram name="Page-1" id="cKqAvMX7gWgXMZV2sESz">
    <mxGraphModel>
      <root>
        <mxCell id="0" />
        <mxCell id="1" parent="0" />
        <mxCell id="2" value="Generaci칩n de Recomendaciones" style="whiteSpace=wrap;strokeWidth=2;verticalAlign=top;" vertex="1" parent="1">
          <mxGeometry x="632" width="330" height="188" as="geometry" />
        </mxCell>
        <mxCell id="3" value="Obtener preferencias del usuario" style="whiteSpace=wrap;strokeWidth=2;" vertex="1" parent="1">
          <mxGeometry x="671" y="35" width="252" height="34" as="geometry" />
        </mxCell>
        <mxCell id="4" value="Recomendar obras relacionadas" style="whiteSpace=wrap;strokeWidth=2;" vertex="1" parent="1">
          <mxGeometry x="676" y="119" width="242" height="34" as="geometry" />
        </mxCell>
        <mxCell id="5" value="An치lisis de Obras" style="whiteSpace=wrap;strokeWidth=2;verticalAlign=top;" vertex="1" parent="1">
          <mxGeometry x="632" y="208" width="330" height="188" as="geometry" />
        </mxCell>
        <mxCell id="6" value="Identificar obras presentes en museo" style="whiteSpace=wrap;strokeWidth=2;" vertex="1" parent="1">
          <mxGeometry x="657" y="243" width="280" height="34" as="geometry" />
        </mxCell>
        <mxCell id="7" value="Analizar popularidad de obras" style="whiteSpace=wrap;strokeWidth=2;" vertex="1" parent="1">
          <mxGeometry x="682" y="327" width="229" height="34" as="geometry" />
        </mxCell>
        <mxCell id="8" value="Base de Datos" style="whiteSpace=wrap;strokeWidth=2;verticalAlign=top;" vertex="1" parent="1">
          <mxGeometry x="632" y="416" width="330" height="188" as="geometry" />
        </mxCell>
        <mxCell id="9" value="Crear base de datos de obras" style="whiteSpace=wrap;strokeWidth=2;" vertex="1" parent="1">
          <mxGeometry x="685" y="451" width="223" height="34" as="geometry" />
        </mxCell>
        <mxCell id="10" value="Registrar nueva obra en inventario" style="whiteSpace=wrap;strokeWidth=2;" vertex="1" parent="1">
          <mxGeometry x="666" y="535" width="263" height="34" as="geometry" />
        </mxCell>
        <mxCell id="11" value="Inicio" style="whiteSpace=wrap;strokeWidth=2;" vertex="1" parent="1">
          <mxGeometry y="285" width="54" height="34" as="geometry" />
        </mxCell>
        <mxCell id="12" value="Desarrollo del algoritmo" style="whiteSpace=wrap;strokeWidth=2;" vertex="1" parent="1">
          <mxGeometry x="104" y="285" width="188" height="34" as="geometry" />
        </mxCell>
        <mxCell id="13" value="Implementaci칩n de inventario" style="whiteSpace=wrap;strokeWidth=2;" vertex="1" parent="1">
          <mxGeometry x="347" y="493" width="230" height="34" as="geometry" />
        </mxCell>
        <mxCell id="14" value="An치lisis de obras en el museo" style="whiteSpace=wrap;strokeWidth=2;" vertex="1" parent="1">
          <mxGeometry x="349" y="285" width="226" height="34" as="geometry" />
        </mxCell>
        <mxCell id="15" value="Sugerencias de obras al usuario" style="whiteSpace=wrap;strokeWidth=2;" vertex="1" parent="1">
          <mxGeometry x="342" y="77" width="240" height="34" as="geometry" />
        </mxCell>
        <mxCell id="16" value="" style="curved=1;startArrow=none;endArrow=block;exitX=1;exitY=0.5;entryX=0;entryY=0.5;" edge="1" parent="1" source="11" target="12">
          <mxGeometry relative="1" as="geometry">
            <Array as="points" />
          </mxGeometry>
        </mxCell>
        <mxCell id="17" value="" style="curved=1;startArrow=none;endArrow=block;exitX=0.55;exitY=1;entryX=0;entryY=0.5;" edge="1" parent="1" source="12" target="13">
          <mxGeometry relative="1" as="geometry">
            <Array as="points">
              <mxPoint x="317" y="510" />
            </Array>
          </mxGeometry>
        </mxCell>
        <mxCell id="18" value="" style="curved=1;startArrow=none;endArrow=block;exitX=1;exitY=0.5;entryX=0;entryY=0.5;" edge="1" parent="1" source="12" target="14">
          <mxGeometry relative="1" as="geometry">
            <Array as="points" />
          </mxGeometry>
        </mxCell>
        <mxCell id="19" value="" style="curved=1;startArrow=none;endArrow=block;exitX=0.55;exitY=0;entryX=0;entryY=0.5;" edge="1" parent="1" source="12" target="15">
          <mxGeometry relative="1" as="geometry">
            <Array as="points">
              <mxPoint x="317" y="94" />
            </Array>
          </mxGeometry>
        </mxCell>
        <mxCell id="20" value="" style="curved=1;startArrow=none;endArrow=block;exitX=0.75;exitY=0;entryX=0;entryY=0.5;" edge="1" parent="1" source="13" target="9">
          <mxGeometry relative="1" as="geometry">
            <Array as="points">
              <mxPoint x="607" y="468" />
            </Array>
          </mxGeometry>
        </mxCell>
        <mxCell id="21" value="" style="curved=1;startArrow=none;endArrow=block;exitX=0.75;exitY=1;entryX=0;entryY=0.5;" edge="1" parent="1" source="13" target="10">
          <mxGeometry relative="1" as="geometry">
            <Array as="points">
              <mxPoint x="607" y="552" />
            </Array>
          </mxGeometry>
        </mxCell>
        <mxCell id="22" value="" style="curved=1;startArrow=none;endArrow=block;exitX=0.76;exitY=0;entryX=0;entryY=0.5;" edge="1" parent="1" source="14" target="6">
          <mxGeometry relative="1" as="geometry">
            <Array as="points">
              <mxPoint x="607" y="260" />
            </Array>
          </mxGeometry>
        </mxCell>
        <mxCell id="23" value="" style="curved=1;startArrow=none;endArrow=block;exitX=0.76;exitY=1;entryX=0;entryY=0.5;" edge="1" parent="1" source="14" target="7">
          <mxGeometry relative="1" as="geometry">
            <Array as="points">
              <mxPoint x="607" y="344" />
            </Array>
          </mxGeometry>
        </mxCell>
        <mxCell id="24" value="" style="curved=1;startArrow=none;endArrow=block;exitX=0.74;exitY=0;entryX=0;entryY=0.5;" edge="1" parent="1" source="15" target="3">
          <mxGeometry relative="1" as="geometry">
            <Array as="points">
              <mxPoint x="607" y="52" />
            </Array>
          </mxGeometry>
        </mxCell>
        <mxCell id="25" value="" style="curved=1;startArrow=none;endArrow=block;exitX=0.74;exitY=1;entryX=0;entryY=0.5;" edge="1" parent="1" source="15" target="4">
          <mxGeometry relative="1" as="geometry">
            <Array as="points">
              <mxPoint x="607" y="136" />
            </Array>
          </mxGeometry>
        </mxCell>
      </root>
    </mxGraphModel>
  </diagram>
</mxfile>
